<svg width="100%" viewBox="0 0 680 360" xmlns="http://www.w3.org/2000/svg">
  <defs>
    <marker id="arrow" viewBox="0 0 10 10" refX="8" refY="5" markerWidth="6" markerHeight="6" orient="auto-start-reverse">
      <path d="M2 1L8 5L2 9" fill="none" stroke="context-stroke" stroke-width="1.5" stroke-linecap="round" stroke-linejoin="round"/>
    </marker>
  </defs>

  <rect width="680" height="360" fill="#0b1528" rx="12"/>

  <!-- Wave lines -->
  <path d="M0,170 Q170,130 340,170 Q510,210 680,170" fill="none" stroke="#1a7fd4" stroke-width="0.6" opacity="0.2"/>
  <path d="M0,190 Q170,150 340,190 Q510,230 680,190" fill="none" stroke="#00c9e4" stroke-width="0.4" opacity="0.15"/>

  <!-- Circuit lines top -->
  <line x1="190" y1="44" x2="255" y2="44" stroke="#1a7fd4" stroke-width="0.8" opacity="0.35"/>
  <line x1="255" y1="44" x2="255" y2="54" stroke="#1a7fd4" stroke-width="0.8" opacity="0.35"/>
  <line x1="395" y1="44" x2="460" y2="44" stroke="#1a7fd4" stroke-width="0.8" opacity="0.35"/>
  <line x1="395" y1="44" x2="395" y2="54" stroke="#1a7fd4" stroke-width="0.8" opacity="0.35"/>

  <!-- Arrows between circles -->
  <line x1="195" y1="130" x2="225" y2="130" stroke="#3b9eff" stroke-width="1.2" marker-end="url(#arrow)" opacity="0.7"/>
  <line x1="455" y1="130" x2="485" y2="130" stroke="#3b9eff" stroke-width="1.2" marker-end="url(#arrow)" opacity="0.7"/>

  <!-- CIRCLE 1 — DATA -->
  <circle cx="120" cy="130" r="70" fill="#0f1e35" stroke="#1a7fd4" stroke-width="1.2" opacity="0.95"/>
  <circle cx="120" cy="130" r="62" fill="none" stroke="#1a7fd4" stroke-width="0.5" opacity="0.3"/>
  <rect x="100" y="58" width="17" height="17" fill="none" stroke="#00c9e4" stroke-width="1.1" rx="2"/>
  <rect x="107" y="52" width="17" height="17" fill="#0f1e35" stroke="#00c9e4" stroke-width="1.1" rx="2"/>
  <line x1="100" y1="58" x2="107" y2="52" stroke="#00c9e4" stroke-width="0.9"/>
  <line x1="117" y1="58" x2="124" y2="52" stroke="#00c9e4" stroke-width="0.9"/>
  <line x1="117" y1="75" x2="124" y2="69" stroke="#00c9e4" stroke-width="0.9"/>
  <text x="120" y="127" text-anchor="middle" font-family="Arial Black, sans-serif" font-size="30" font-weight="900" fill="#00c9e4">DATA</text>
  <circle cx="55" cy="108" r="2" fill="#1a7fd4" opacity="0.7"/>
  <circle cx="60" cy="150" r="1.8" fill="#00c9e4" opacity="0.5"/>
  <circle cx="182" cy="100" r="2" fill="#1a7fd4" opacity="0.7"/>
  <circle cx="178" cy="158" r="1.8" fill="#00c9e4" opacity="0.5"/>

  <!-- CIRCLE 2 — AI -->
  <circle cx="340" cy="130" r="70" fill="#0f1e35" stroke="#00c9e4" stroke-width="1.2" opacity="0.95"/>
  <circle cx="340" cy="130" r="62" fill="none" stroke="#00c9e4" stroke-width="0.5" opacity="0.3"/>
  <circle cx="340" cy="68" r="2.5" fill="#00c9e4" opacity="0.8"/>
  <circle cx="315" cy="80" r="2.5" fill="#00c9e4" opacity="0.7"/>
  <circle cx="365" cy="80" r="2.5" fill="#00c9e4" opacity="0.7"/>
  <circle cx="302" cy="96" r="2.5" fill="#3b9eff" opacity="0.7"/>
  <circle cx="378" cy="96" r="2.5" fill="#3b9eff" opacity="0.7"/>
  <circle cx="328" cy="90" r="2.5" fill="#00c9e4" opacity="0.6"/>
  <circle cx="352" cy="90" r="2.5" fill="#00c9e4" opacity="0.6"/>
  <line x1="340" y1="68" x2="315" y2="80" stroke="#00c9e4" stroke-width="0.7" opacity="0.5"/>
  <line x1="340" y1="68" x2="365" y2="80" stroke="#00c9e4" stroke-width="0.7" opacity="0.5"/>
  <line x1="315" y1="80" x2="302" y2="96" stroke="#3b9eff" stroke-width="0.7" opacity="0.4"/>
  <line x1="315" y1="80" x2="328" y2="90" stroke="#00c9e4" stroke-width="0.7" opacity="0.4"/>
  <line x1="365" y1="80" x2="378" y2="96" stroke="#3b9eff" stroke-width="0.7" opacity="0.4"/>
  <line x1="365" y1="80" x2="352" y2="90" stroke="#00c9e4" stroke-width="0.7" opacity="0.4"/>
  <text x="340" y="127" text-anchor="middle" font-family="Arial Black, sans-serif" font-size="30" font-weight="900" fill="#3b9eff">AI</text>
  <circle cx="275" cy="108" r="2" fill="#00c9e4" opacity="0.7"/>
  <circle cx="270" cy="152" r="1.8" fill="#3b9eff" opacity="0.5"/>
  <circle cx="405" cy="100" r="2" fill="#00c9e4" opacity="0.7"/>
  <circle cx="408" cy="155" r="1.8" fill="#3b9eff" opacity="0.5"/>

  <!-- CIRCLE 3 — AUTOMATION -->
  <circle cx="560" cy="130" r="70" fill="#0f1e35" stroke="#1a7fd4" stroke-width="1.2" opacity="0.95"/>
  <circle cx="560" cy="130" r="62" fill="none" stroke="#1a7fd4" stroke-width="0.5" opacity="0.3"/>
  <circle cx="548" cy="66" r="9" fill="none" stroke="#3b9eff" stroke-width="1.4"/>
  <circle cx="548" cy="66" r="3.5" fill="#3b9eff" opacity="0.6"/>
  <circle cx="564" cy="76" r="6" fill="none" stroke="#1a7fd4" stroke-width="1.2"/>
  <circle cx="564" cy="76" r="2.5" fill="#1a7fd4" opacity="0.6"/>
  <line x1="572" y1="66" x2="585" y2="66" stroke="#3b9eff" stroke-width="1.1" marker-end="url(#arrow)" opacity="0.8"/>
  <text x="560" y="127" text-anchor="middle" font-family="Arial Black, sans-serif" font-size="19" font-weight="900" fill="#3b9eff">AUTOMATION</text>
  <circle cx="495" cy="108" r="2" fill="#1a7fd4" opacity="0.7"/>
  <circle cx="492" cy="155" r="1.8" fill="#3b9eff" opacity="0.5"/>
  <circle cx="624" cy="115" r="2" fill="#1a7fd4" opacity="0.7"/>

  <!-- Divider line -->
  <line x1="40" y1="218" x2="640" y2="218" stroke="#1e3a5f" stroke-width="0.8" opacity="0.6"/>

  <!-- Bottom labels under circles -->
  <text x="120" y="242" text-anchor="middle" font-family="Arial, sans-serif" font-size="11" font-weight="700" fill="#1a7fd4" letter-spacing="1.2">COLLECTION</text>
  <text x="120" y="258" text-anchor="middle" font-family="Arial, sans-serif" font-size="11" font-weight="700" fill="#1a7fd4" letter-spacing="1.2">STRATEGY · INSIGHTS</text>

  <text x="340" y="242" text-anchor="middle" font-family="Arial, sans-serif" font-size="11" font-weight="700" fill="#00c9e4" letter-spacing="1.2">INTELLIGENCE</text>
  <text x="340" y="258" text-anchor="middle" font-family="Arial, sans-serif" font-size="11" font-weight="700" fill="#00c9e4" letter-spacing="1.2">LEARNING · PREDICTION</text>

  <text x="560" y="242" text-anchor="middle" font-family="Arial, sans-serif" font-size="11" font-weight="700" fill="#3b9eff" letter-spacing="1.2">WORKFLOWS</text>
  <text x="560" y="258" text-anchor="middle" font-family="Arial, sans-serif" font-size="11" font-weight="700" fill="#3b9eff" letter-spacing="1.2">EFFICIENCY · EXECUTION</text>

  <!-- Bottom tagline -->
  <text x="340" y="300" text-anchor="middle" font-family="Arial, sans-serif" font-size="11" fill="#ffffff" letter-spacing="3" opacity="0.6">THE POWER OF INTELLIGENT SYSTEMS</text>
</svg>
