<svg xmlns="http://www.w3.org/2000/svg" viewBox="15.605091864620803 157.25314843784906 541.1095199146761 242.70588789745813"><rect height="100%" width="100%" x="15.605091864620803" y="157.25314843784906" fill="rgba(11, 21, 40, 1)"/> <g transform="rotate(30 135.01987351547814 278.6060923865781)"><svg xmlns="http://www.w3.org/2000/svg" xmlns:xlink="http://www.w3.org/1999/xlink" version="1.1" id="Capa_1" x="100.783905" y="239.074966" viewBox="247.50003051757812 97.80000305175781 340.5400085449219 393.21002197265625" xml:space="preserve" height="79.06225277315625" width="68.47193703095627" preserveAspectRatio="xMinYMin" enable-background="new 0 0 841.89 595.28" style="overflow: visible;"><polygon class="st0" points="329.23,290.48 404.15,247.22 376.9,231.49 329.23,259.02 329.23,164.65 301.99,180.37 301.99,314.07   329.23,329.8 " style="fill: #FCEA10; fill-opacity: 0;"></polygon><polygon class="st1" points="404.15,388.78 370.09,369.12 370.09,282.61 342.85,298.34 342.85,353.39 261.12,306.21 261.12,337.66   376.9,404.51 " style="fill: #2FAC66; fill-opacity: 0;"></polygon><polygon class="st2" points="342.85,203.97 342.85,235.43 376.9,215.77 451.82,259.02 451.82,227.56 404.15,200.04 485.88,152.85   458.63,137.12 " style="fill: #F9B233; fill-opacity: 0;"></polygon><polygon class="st3" points="431.39,200.04 465.44,219.7 465.44,306.21 492.69,290.48 492.69,235.43 574.42,282.61 574.42,251.15   458.63,184.31 " style="fill: #E94E1B; fill-opacity: 0;"></polygon><polygon class="st4" points="383.72,329.8 383.72,361.26 431.39,388.78 349.66,435.97 376.9,451.7 492.69,384.85 492.69,353.39   458.63,373.05 " style="fill: #36A9E1; fill-opacity: 0;"></polygon><polygon class="st5" points="506.31,298.34 431.39,341.6 458.63,357.32 506.31,329.8 506.31,424.17 533.55,408.44 533.55,274.75   506.31,259.02 " style="fill: #E71D73; fill-opacity: 0;"></polygon><path class="st6" d="M342.85,188.24v-31.46l88.54-51.12l-13.62-7.86l-129.41,74.71v133.7l-27.24-15.73V188.24l-13.62,7.86v149.42  l115.78,66.85l-27.24,15.73l-88.54-51.12v15.73l129.41,74.71l115.78-66.85v31.46l-88.54,51.12l13.62,7.86l129.41-74.71v-133.7  l27.24,15.73v102.24l13.62-7.86V243.29l-115.78-66.85l27.24-15.73l88.54,51.12V196.1l-129.41-74.71L342.85,188.24z M301.99,180.37  l27.24-15.73v94.37l47.68-27.53l27.24,15.73l-74.92,43.25v39.32l-27.24-15.73V180.37z M417.77,255.09l34.05,19.66v39.32  l-34.05,19.66l-34.05-19.66v-39.32L417.77,255.09z M261.12,337.66v-31.46l81.73,47.19v-55.05l27.24-15.73v86.51l34.05,19.66  l-27.24,15.73L261.12,337.66z M492.69,384.85L376.9,451.7l-27.24-15.73l81.73-47.19l-47.68-27.53V329.8l74.92,43.25l34.05-19.66  V384.85z M533.55,408.44l-27.24,15.73V329.8l-47.68,27.53l-27.24-15.73l74.92-43.25v-39.32l27.24,15.73V408.44z M574.42,251.15  v31.46l-81.73-47.19v55.05l-27.24,15.73V219.7l-34.05-19.66l27.24-15.73L574.42,251.15z M404.15,200.04l47.68,27.53v31.46  l-74.92-43.25l-34.05,19.66v-31.46l115.78-66.85l27.24,15.73L404.15,200.04z" style="fill: #3AD0E6; fill-opacity: 1;"></path></svg></g> <svg x="182.434613" y="261.851076" viewBox="1.3700000047683716 9.119999885559082 304.2799987792969 33.51000213623047" height="33.51000213623047" width="304.2799987792969" style="overflow: visible;"><g fill="#ffffff" fill-opacity="1" style=""><path d="M9.67 42.35L1.37 42.35L1.37 11.41L9.88 11.41Q13.22 11.41 14.91 13.26Q16.59 15.12 16.59 18.69L16.59 18.69L16.59 33.17Q16.59 37.56 15.06 39.96Q13.52 42.35 9.67 42.35L9.67 42.35ZM7.59 16.82L7.59 36.88L8.67 36.88Q10.37 36.88 10.37 35.23L10.37 35.23L10.37 19.27Q10.37 17.72 9.96 17.27Q9.54 16.82 8.28 16.82L8.28 16.82L7.59 16.82ZM23.82 42.63L23.82 42.63Q21.62 42.63 20.47 41.61Q19.32 40.59 18.90 38.81Q18.47 37.04 18.47 34.79L18.47 34.79Q18.47 32.38 18.95 30.84Q19.42 29.30 20.58 28.32Q21.73 27.33 23.75 26.65L23.75 26.65L27.65 25.31L27.65 22.61Q27.65 20.48 26.26 20.48L26.26 20.48Q25.00 20.48 25.00 22.20L25.00 22.20L25.00 23.78L18.88 23.78Q18.86 23.64 18.86 23.42Q18.86 23.20 18.86 22.92L18.86 22.92Q18.86 18.98 20.72 17.34Q22.57 15.70 26.60 15.70L26.60 15.70Q28.71 15.70 30.38 16.44Q32.04 17.19 33.02 18.65Q34.00 20.11 34.00 22.25L34.00 22.25L34.00 42.35L27.74 42.35L27.74 39.22Q27.28 40.87 26.23 41.75Q25.17 42.63 23.82 42.63ZM26.30 37.74L26.30 37.74Q27.07 37.74 27.35 37.09Q27.63 36.44 27.63 35.68L27.63 35.68L27.63 28.34Q26.33 28.86 25.61 29.66Q24.89 30.46 24.89 32.01L24.89 32.01L24.89 35.40Q24.89 37.74 26.30 37.74ZM41.84 42.63L41.84 42.63Q39.29 42.63 38.40 41.55Q37.51 40.46 37.51 38.23L37.51 38.23L37.51 21.80L35.74 21.80L35.74 17.00L37.51 17.00L37.51 11.41L43.63 11.41L43.63 17.00L45.40 17.00L45.40 21.80L43.63 21.80L43.63 36.76Q43.63 37.41 43.84 37.67Q44.05 37.93 44.65 37.93L44.65 37.93Q45.07 37.93 45.40 37.86L45.40 37.86L45.40 42.15Q45.19 42.22 44.09 42.42Q42.98 42.63 41.84 42.63ZM52.21 42.63L52.21 42.63Q50.01 42.63 48.86 41.61Q47.71 40.59 47.29 38.81Q46.86 37.04 46.86 34.79L46.86 34.79Q46.86 32.38 47.34 30.84Q47.81 29.30 48.96 28.32Q50.12 27.33 52.14 26.65L52.14 26.65L56.04 25.31L56.04 22.61Q56.04 20.48 54.65 20.48L54.65 20.48Q53.38 20.48 53.38 22.20L53.38 22.20L53.38 23.78L47.27 23.78Q47.25 23.64 47.25 23.42Q47.25 23.20 47.25 22.92L47.25 22.92Q47.25 18.98 49.10 17.34Q50.96 15.70 54.98 15.70L54.98 15.70Q57.09 15.70 58.76 16.44Q60.43 17.19 61.41 18.65Q62.38 20.11 62.38 22.25L62.38 22.25L62.38 42.35L56.13 42.35L56.13 39.22Q55.67 40.87 54.62 41.75Q53.56 42.63 52.21 42.63ZM54.69 37.74L54.69 37.74Q55.46 37.74 55.74 37.09Q56.02 36.44 56.02 35.68L56.02 35.68L56.02 28.34Q54.72 28.86 54 29.66Q53.28 30.46 53.28 32.01L53.28 32.01L53.28 35.40Q53.28 37.74 54.69 37.74ZM79.58 42.35L73.35 42.35L73.35 11.41L85.73 11.41L85.73 17.44L79.58 17.44L79.58 22.36L85.41 22.36L85.41 28.32L79.58 28.32L79.58 42.35ZM95.27 42.63L95.27 42.63Q87.40 42.63 87.40 34.45L87.40 34.45L87.40 23.87Q87.40 20.14 89.49 17.92Q91.58 15.70 95.27 15.70L95.27 15.70Q98.98 15.70 101.07 17.92Q103.17 20.14 103.17 23.87L103.17 23.87L103.17 34.45Q103.17 42.63 95.27 42.63ZM95.27 37.78L95.27 37.78Q96.06 37.78 96.41 37.20Q96.75 36.63 96.75 35.75L96.75 35.75L96.75 22.87Q96.75 20.57 95.27 20.57L95.27 20.57Q93.80 20.57 93.80 22.87L93.80 22.87L93.80 35.75Q93.80 36.63 94.14 37.20Q94.48 37.78 95.27 37.78ZM110.57 42.63L110.57 42.63Q108.46 42.63 107.34 41.75Q106.22 40.87 105.82 39.30Q105.42 37.72 105.42 35.61L105.42 35.61L105.42 15.98L111.74 15.98L111.74 34.88Q111.74 36.46 111.99 37.08Q112.24 37.71 113.15 37.71L113.15 37.71Q114.13 37.71 114.39 36.83Q114.64 35.95 114.64 34.56L114.64 34.56L114.64 15.98L120.92 15.98L120.92 42.35L114.63 42.35L114.63 39.53Q114.03 41.04 113.19 41.84Q112.36 42.63 110.57 42.63ZM129.74 42.35L123.45 42.35L123.45 15.98L129.74 15.98L129.74 19.34Q130.10 17.82 131.05 16.76Q132.01 15.70 133.72 15.70L133.72 15.70Q136.46 15.70 137.70 17.38Q138.94 19.07 138.94 22.01L138.94 22.01L138.94 42.35L132.73 42.35L132.73 22.66Q132.73 21.88 132.42 21.23Q132.10 20.57 131.33 20.57L131.33 20.57Q130.61 20.57 130.26 21.07Q129.92 21.57 129.83 22.32Q129.74 23.06 129.74 23.80L129.74 23.80L129.74 42.35ZM146.58 42.63L146.58 42.63Q144.76 42.63 143.68 41.96Q142.61 41.29 142.08 40.11Q141.56 38.94 141.39 37.35Q141.22 35.77 141.22 33.96L141.22 33.96L141.22 22.50Q141.22 19.46 142.30 17.58Q143.38 15.70 145.97 15.70L145.97 15.70Q147.88 15.70 148.91 16.51Q149.94 17.33 150.50 18.79L150.50 18.79L150.50 11.41L156.90 11.41L156.90 42.35L150.50 42.35L150.50 39.55Q149.98 40.97 149.11 41.80Q148.24 42.63 146.58 42.63ZM148.99 37.71L148.99 37.71Q149.89 37.71 150.20 36.98Q150.50 36.26 150.50 34.40L150.50 34.40L150.50 23.31Q150.50 22.38 150.23 21.47Q149.96 20.57 149.03 20.57L149.03 20.57Q148.01 20.57 147.74 21.43Q147.48 22.29 147.48 23.31L147.48 23.31L147.48 34.40Q147.48 37.71 148.99 37.71ZM164.13 42.63L164.13 42.63Q161.93 42.63 160.78 41.61Q159.63 40.59 159.21 38.81Q158.78 37.04 158.78 34.79L158.78 34.79Q158.78 32.38 159.26 30.84Q159.73 29.30 160.88 28.32Q162.04 27.33 164.06 26.65L164.06 26.65L167.96 25.31L167.96 22.61Q167.96 20.48 166.57 20.48L166.57 20.48Q165.30 20.48 165.30 22.20L165.30 22.20L165.30 23.78L159.19 23.78Q159.17 23.64 159.17 23.42Q159.17 23.20 159.17 22.92L159.17 22.92Q159.17 18.98 161.02 17.34Q162.88 15.70 166.90 15.70L166.90 15.70Q169.01 15.70 170.68 16.44Q172.35 17.19 173.33 18.65Q174.30 20.11 174.30 22.25L174.30 22.25L174.30 42.35L168.05 42.35L168.05 39.22Q167.59 40.87 166.54 41.75Q165.48 42.63 164.13 42.63ZM166.61 37.74L166.61 37.74Q167.38 37.74 167.66 37.09Q167.94 36.44 167.94 35.68L167.94 35.68L167.94 28.34Q166.64 28.86 165.92 29.66Q165.20 30.46 165.20 32.01L165.20 32.01L165.20 35.40Q165.20 37.74 166.61 37.74ZM182.14 42.63L182.14 42.63Q179.60 42.63 178.71 41.55Q177.82 40.46 177.82 38.23L177.82 38.23L177.82 21.80L176.04 21.80L176.04 17.00L177.82 17.00L177.82 11.41L183.94 11.41L183.94 17.00L185.71 17.00L185.71 21.80L183.94 21.80L183.94 36.76Q183.94 37.41 184.15 37.67Q184.36 37.93 184.96 37.93L184.96 37.93Q185.38 37.93 185.71 37.86L185.71 37.86L185.71 42.15Q185.50 42.22 184.39 42.42Q183.29 42.63 182.14 42.63ZM193.97 14.36L187.68 14.36L187.68 9.12L193.97 9.12L193.97 14.36ZM193.97 42.35L187.68 42.35L187.68 15.98L193.97 15.98L193.97 42.35ZM204.13 42.63L204.13 42.63Q196.26 42.63 196.26 34.45L196.26 34.45L196.26 23.87Q196.26 20.14 198.35 17.92Q200.44 15.70 204.13 15.70L204.13 15.70Q207.84 15.70 209.94 17.92Q212.03 20.14 212.03 23.87L212.03 23.87L212.03 34.45Q212.03 42.63 204.13 42.63ZM204.13 37.78L204.13 37.78Q204.93 37.78 205.27 37.20Q205.61 36.63 205.61 35.75L205.61 35.75L205.61 22.87Q205.61 20.57 204.13 20.57L204.13 20.57Q202.66 20.57 202.66 22.87L202.66 22.87L202.66 35.75Q202.66 36.63 203.00 37.20Q203.34 37.78 204.13 37.78ZM220.64 42.35L214.35 42.35L214.35 15.98L220.64 15.98L220.64 19.34Q220.99 17.82 221.95 16.76Q222.91 15.70 224.61 15.70L224.61 15.70Q227.36 15.70 228.59 17.38Q229.83 19.07 229.83 22.01L229.83 22.01L229.83 42.35L223.63 42.35L223.63 22.66Q223.63 21.88 223.31 21.23Q223.00 20.57 222.22 20.57L222.22 20.57Q221.50 20.57 221.16 21.07Q220.82 21.57 220.73 22.32Q220.64 23.06 220.64 23.80L220.64 23.80L220.64 42.35ZM253.39 42.35L240.84 42.35L240.84 11.41L247.03 11.41L247.03 37.07L253.39 37.07L253.39 42.35ZM259.84 42.63L259.84 42.63Q257.64 42.63 256.49 41.61Q255.34 40.59 254.92 38.81Q254.50 37.04 254.50 34.79L254.50 34.79Q254.50 32.38 254.97 30.84Q255.45 29.30 256.60 28.32Q257.75 27.33 259.77 26.65L259.77 26.65L263.67 25.31L263.67 22.61Q263.67 20.48 262.28 20.48L262.28 20.48Q261.02 20.48 261.02 22.20L261.02 22.20L261.02 23.78L254.90 23.78Q254.88 23.64 254.88 23.42Q254.88 23.20 254.88 22.92L254.88 22.92Q254.88 18.98 256.74 17.34Q258.59 15.70 262.62 15.70L262.62 15.70Q264.73 15.70 266.40 16.44Q268.07 17.19 269.04 18.65Q270.02 20.11 270.02 22.25L270.02 22.25L270.02 42.35L263.76 42.35L263.76 39.22Q263.30 40.87 262.25 41.75Q261.19 42.63 259.84 42.63ZM262.32 37.74L262.32 37.74Q263.09 37.74 263.37 37.09Q263.65 36.44 263.65 35.68L263.65 35.68L263.65 28.34Q262.35 28.86 261.63 29.66Q260.91 30.46 260.91 32.01L260.91 32.01L260.91 35.40Q260.91 37.74 262.32 37.74ZM282.97 42.63L282.97 42.63Q281.43 42.63 280.46 41.86Q279.49 41.10 278.91 39.53L278.91 39.53L278.91 42.35L272.51 42.35L272.51 11.41L278.91 11.41L278.91 18.79Q279.49 17.33 280.52 16.51Q281.55 15.70 283.46 15.70L283.46 15.70Q286.05 15.70 287.11 17.58Q288.18 19.46 288.18 22.50L288.18 22.50L288.18 35.47Q288.18 37.49 287.62 39.12Q287.07 40.75 285.92 41.69Q284.77 42.63 282.97 42.63ZM280.37 37.72L280.37 37.72Q281.37 37.72 281.58 36.74Q281.79 35.75 281.79 34.31L281.79 34.31L281.79 24.01Q281.79 22.55 281.58 21.58Q281.37 20.60 280.39 20.60L280.39 20.60Q279.37 20.60 279.14 21.59Q278.91 22.59 278.91 24.01L278.91 24.01L278.91 34.31Q278.91 35.74 279.14 36.73Q279.37 37.72 280.37 37.72ZM297.72 42.63L297.72 42.63Q289.92 42.63 289.92 34.72L289.92 34.72L289.92 32.63L296.24 32.63L296.24 35.72Q296.24 36.62 296.60 37.13Q296.95 37.63 297.72 37.63L297.72 37.63Q299.09 37.63 299.09 35.58L299.09 35.58Q299.09 33.86 298.37 33.00Q297.65 32.15 296.61 31.36L296.61 31.36L293.26 28.78Q291.67 27.54 290.85 26.17Q290.02 24.80 290.02 22.36L290.02 22.36Q290.02 20.09 291.10 18.62Q292.18 17.14 293.97 16.42Q295.75 15.70 297.83 15.70L297.83 15.70Q305.49 15.70 305.49 23.34L305.49 23.34L305.49 23.84L298.99 23.84L298.99 22.83Q298.99 22.04 298.71 21.30Q298.44 20.57 297.65 20.57L297.65 20.57Q296.31 20.57 296.31 21.97L296.31 21.97Q296.31 23.40 297.44 24.21L297.44 24.21L301.34 27.05Q303.17 28.37 304.41 30.18Q305.65 31.99 305.65 35.00L305.65 35.00Q305.65 38.72 303.53 40.68Q301.41 42.63 297.72 42.63Z" transform="translate(0, 0)"></path></g></svg></svg>